<?xml version="1.0" encoding="UTF-8"?>
<svg width="19px" height="20px" viewBox="0 0 19 20" version="1.1" xmlns="http://www.w3.org/2000/svg" xmlns:xlink="http://www.w3.org/1999/xlink">
    <!-- Generator: Sketch 44.1 (41455) - http://www.bohemiancoding.com/sketch -->
    <title>Book-open - simple-line-icons</title>
    <desc>Created with Sketch.</desc>
    <defs></defs>
    <g id="Page-1" stroke="none" stroke-width="1" fill="none" fill-rule="evenodd">
        <g id="暑校_后台_历史订单" transform="translate(-241.000000, -674.000000)" fill="#000000">
            <g id="Group-6" transform="translate(240.000000, 360.000000)">
                <g id="Group-4" transform="translate(0.000000, 313.000000)">
                    <g id="Group">
                        <path d="M18.6640625,1.22460938 C19.0104184,1.12565055 19.3196601,1.18131405 19.5917969,1.39160156 C19.8639337,1.60188907 20,1.8802066 20,2.2265625 L20,16.6621094 C20,16.9589859 19.9010427,17.234211 19.703125,17.487793 C19.5052073,17.741375 19.2639988,17.9052731 18.9794922,17.9794922 L11.1308594,20.1132812 C11.0071608,20.1503908 10.8803717,20.1751301 10.7504883,20.1875 C10.6206048,20.1998699 10.5061854,20.2060547 10.4072266,20.2060547 C10.2711582,20.2060547 10.1381842,20.1967774 10.0083008,20.1782227 C9.87841732,20.1596679 9.76399789,20.138021 9.66503906,20.1132812 L2.02050781,17.9980469 C1.73600118,17.9114579 1.49479266,17.741375 1.296875,17.487793 C1.09895734,17.234211 1,16.9589859 1,16.6621094 L1,2.2265625 C1,1.8802066 1.13606635,1.60188907 1.40820312,1.39160156 C1.6803399,1.18131405 1.9895816,1.12565055 2.3359375,1.22460938 L9.98046875,3.33984375 C10.0794276,3.36458346 10.2185863,3.37695312 10.3979492,3.37695312 C10.5773121,3.37695312 10.7164709,3.36458346 10.8154297,3.33984375 L18.6640625,1.22460938 Z M9.90625,18.9443359 L9.90625,4.52734375 C9.86914044,4.52734375 9.82893902,4.52115892 9.78564453,4.50878906 C9.74235004,4.49641921 9.70214862,4.49023438 9.66503906,4.49023438 L2.1875,2.41210937 L2.1875,16.6621094 C2.1875,16.6992189 2.20296208,16.7363279 2.23388672,16.7734375 C2.26481135,16.8105471 2.29264311,16.8352864 2.31738281,16.8476562 L9.90625,18.9443359 Z M18.8125,16.6621094 L18.8125,2.41210937 L11.1308594,4.49023438 L11.09375,4.49023438 L11.09375,18.8886719 L18.6640625,16.8476562 C18.6888022,16.8352864 18.7197264,16.8105471 18.7568359,16.7734375 C18.7939455,16.7363279 18.8125,16.6992189 18.8125,16.6621094 Z M12.9121094,7.97851562 C12.7884108,7.97851562 12.670899,7.94140662 12.5595703,7.8671875 C12.4482416,7.79296838 12.3740236,7.6878262 12.3369141,7.55175781 C12.2998045,7.39094972 12.3214514,7.23942128 12.4018555,7.09716797 C12.4822595,6.95491465 12.5966789,6.85904973 12.7451172,6.80957031 L16.9013672,5.640625 C17.0621753,5.60351544 17.2137037,5.62516236 17.355957,5.70556641 C17.4982103,5.78597045 17.5940753,5.90657472 17.6435547,6.06738281 C17.6806642,6.21582105 17.6590173,6.36116465 17.5786133,6.50341797 C17.4982092,6.64567128 17.3837898,6.74153621 17.2353516,6.79101562 L13.0791016,7.95996094 C13.0543619,7.97233079 13.0265301,7.97851562 12.9956055,7.97851562 L12.9121094,7.97851562 Z M12.9121094,11.5410156 C12.7884108,11.5410156 12.670899,11.5039066 12.5595703,11.4296875 C12.4482416,11.3554684 12.3740236,11.2503262 12.3369141,11.1142578 C12.2998045,10.9534497 12.3214514,10.8019213 12.4018555,10.659668 C12.4822595,10.5174147 12.5966789,10.4215497 12.7451172,10.3720703 L16.9013672,9.203125 C17.0621753,9.16601544 17.2137037,9.18766236 17.355957,9.26806641 C17.4982103,9.34847045 17.5940753,9.46907472 17.6435547,9.62988281 C17.6806642,9.77832105 17.6590173,9.92366465 17.5786133,10.065918 C17.4982092,10.2081713 17.3837898,10.3040362 17.2353516,10.3535156 L13.0791016,11.5224609 C13.0543619,11.5348308 13.0265301,11.5410156 12.9956055,11.5410156 L12.9121094,11.5410156 Z M12.9121094,15.1035156 C12.7884108,15.1035156 12.670899,15.0664066 12.5595703,14.9921875 C12.4482416,14.9179684 12.3740236,14.8128262 12.3369141,14.6767578 C12.2998045,14.5159497 12.3214514,14.3644213 12.4018555,14.222168 C12.4822595,14.0799147 12.5966789,13.9840497 12.7451172,13.9345703 L16.9013672,12.765625 C17.0621753,12.7285154 17.2137037,12.7501624 17.355957,12.8305664 C17.4982103,12.9109705 17.5940753,13.0315747 17.6435547,13.1923828 C17.6806642,13.3408211 17.6590173,13.4861647 17.5786133,13.628418 C17.4982092,13.7706713 17.3837898,13.8665362 17.2353516,13.9160156 L13.0791016,15.0849609 C13.0543619,15.0973308 13.0265301,15.1035156 12.9956055,15.1035156 L12.9121094,15.1035156 Z M8.32910156,6.80957031 C8.4775398,6.85904973 8.59195923,6.95491465 8.67236328,7.09716797 C8.75276733,7.23942128 8.77441425,7.39094972 8.73730469,7.55175781 C8.70019513,7.6878262 8.62597712,7.79296838 8.51464844,7.8671875 C8.40331976,7.94140662 8.28580791,7.97851562 8.16210938,7.97851562 L8.07861328,7.97851562 C8.04768865,7.97851562 8.01985689,7.97233079 7.99511719,7.95996094 L3.83886719,6.79101562 C3.69042895,6.74153621 3.57600952,6.64567128 3.49560547,6.50341797 C3.41520142,6.36116465 3.3935545,6.21582105 3.43066406,6.06738281 C3.48014348,5.90657472 3.5760084,5.78597045 3.71826172,5.70556641 C3.86051503,5.62516236 4.01204347,5.60351544 4.17285156,5.640625 L8.32910156,6.80957031 Z M8.32910156,10.3720703 C8.4775398,10.4215497 8.59195923,10.5174147 8.67236328,10.659668 C8.75276733,10.8019213 8.77441425,10.9534497 8.73730469,11.1142578 C8.70019513,11.2503262 8.62597712,11.3554684 8.51464844,11.4296875 C8.40331976,11.5039066 8.28580791,11.5410156 8.16210938,11.5410156 L8.07861328,11.5410156 C8.04768865,11.5410156 8.01985689,11.5348308 7.99511719,11.5224609 L3.83886719,10.3535156 C3.69042895,10.3040362 3.57600952,10.2081713 3.49560547,10.065918 C3.41520142,9.92366465 3.3935545,9.77832105 3.43066406,9.62988281 C3.48014348,9.46907472 3.5760084,9.34847045 3.71826172,9.26806641 C3.86051503,9.18766236 4.01204347,9.16601544 4.17285156,9.203125 L8.32910156,10.3720703 Z M8.32910156,13.9345703 C8.4775398,13.9840497 8.59195923,14.0799147 8.67236328,14.222168 C8.75276733,14.3644213 8.77441425,14.5159497 8.73730469,14.6767578 C8.70019513,14.8128262 8.62597712,14.9179684 8.51464844,14.9921875 C8.40331976,15.0664066 8.28580791,15.1035156 8.16210938,15.1035156 L8.07861328,15.1035156 C8.04768865,15.1035156 8.01985689,15.0973308 7.99511719,15.0849609 L3.83886719,13.9160156 C3.69042895,13.8665362 3.57600952,13.7706713 3.49560547,13.628418 C3.41520142,13.4861647 3.3935545,13.3408211 3.43066406,13.1923828 C3.48014348,13.0315747 3.5760084,12.9109705 3.71826172,12.8305664 C3.86051503,12.7501624 4.01204347,12.7285154 4.17285156,12.765625 L8.32910156,13.9345703 Z" id="Book-open---simple-line-icons"></path>
                    </g>
                </g>
            </g>
        </g>
    </g>
</svg>