<?xml version="1.0" encoding="UTF-8"?>
<svg width="18px" height="23px" viewBox="0 0 18 23" version="1.1" xmlns="http://www.w3.org/2000/svg" xmlns:xlink="http://www.w3.org/1999/xlink">
    <!-- Generator: Sketch 44.1 (41455) - http://www.bohemiancoding.com/sketch -->
    <title>Location-pin - simple-line-icons</title>
    <desc>Created with Sketch.</desc>
    <defs></defs>
    <g id="Page-1" stroke="none" stroke-width="1" fill="none" fill-rule="evenodd">
        <g id="暑校_后台_成绩单/寄送" transform="translate(-321.000000, -732.000000)" fill="#000000">
            <g id="Group-3" transform="translate(319.000000, 732.000000)">
                <path d="M11.0859375,0.375 C12.3750064,0.375 13.5279897,0.597002988 14.5449219,1.04101562 C15.561854,1.48502826 16.4176398,2.09016544 17.1123047,2.85644531 C17.8069696,3.62272519 18.3369122,4.51431783 18.7021484,5.53125 C19.0673846,6.54818217 19.25,7.62239018 19.25,8.75390625 C19.25,9.89974531 19.0244163,11.070632 18.5732422,12.2666016 C18.1220681,13.4625711 17.5527378,14.6370385 16.8652344,15.7900391 C16.1777309,16.9430396 15.4329467,18.0351511 14.6308594,19.0664062 C13.828772,20.0976614 13.0768264,21.0143189 12.375,21.8164062 C12.375,21.8307292 12.2675792,21.927408 12.0527344,22.1064453 C11.8378896,22.2854827 11.587241,22.375 11.3007812,22.375 L11.2363281,22.375 C10.9355454,22.375 10.6813161,22.2854827 10.4736328,22.1064453 C10.2659495,21.927408 10.1621094,21.8307292 10.1621094,21.8164062 C9.41731398,20.957027 8.61165798,20.0188853 7.74511719,19.0019531 C6.8785764,17.985021 6.07650108,16.9143936 5.33886719,15.7900391 C4.60123329,14.6656845 3.98535403,13.5091205 3.49121094,12.3203125 C2.99706784,11.1315045 2.75,9.94271428 2.75,8.75390625 C2.75,7.62239018 2.97200299,6.54818217 3.41601562,5.53125 C3.86002826,4.51431783 4.46158475,3.62272519 5.22070312,2.85644531 C5.9798215,2.09016544 6.86425276,1.48502826 7.87402344,1.04101562 C8.88379411,0.597002988 9.95442143,0.375 11.0859375,0.375 Z M11.34375,20.8925781 C12.4322971,19.6464781 13.3847615,18.4576879 14.2011719,17.3261719 C15.0175822,16.1946558 15.6979139,15.1240285 16.2421875,14.1142578 C16.7864611,13.1044871 17.1946601,12.1520227 17.4667969,11.2568359 C17.7389337,10.3616492 17.875,9.52734762 17.875,8.75390625 C17.875,7.88020396 17.7425143,7.02441825 17.4775391,6.18652344 C17.2125638,5.34862862 16.800784,4.60026371 16.2421875,3.94140625 C15.683591,3.28254879 14.9781944,2.75260617 14.1259766,2.3515625 C13.2737588,1.95051883 12.2604225,1.75 11.0859375,1.75 C10.1406203,1.75 9.24544693,1.93619605 8.40039062,2.30859375 C7.55533432,2.68099145 6.81771148,3.18586921 6.1875,3.82324219 C5.55728852,4.46061517 5.05599145,5.20539938 4.68359375,6.05761719 C4.31119605,6.90983499 4.125,7.80858902 4.125,8.75390625 C4.125,9.77083842 4.3398416,10.8020781 4.76953125,11.8476562 C5.1992209,12.8932344 5.74348629,13.9208934 6.40234375,14.9306641 C7.06120121,15.9404347 7.78450127,16.9143833 8.57226562,17.8525391 C9.36002998,18.7906948 10.1048142,19.6679647 10.8066406,20.484375 L11.171875,20.8925781 L11.2578125,20.9785156 C11.2721355,20.9641926 11.290039,20.9498699 11.3115234,20.9355469 C11.3330079,20.9212239 11.34375,20.9069011 11.34375,20.8925781 Z M11.0214844,4.52148438 C12.1673234,4.52148438 13.141272,4.92610272 13.9433594,5.73535156 C14.7454467,6.5446004 15.1464844,7.5149683 15.1464844,8.64648438 C15.1464844,9.79232344 14.7454467,10.766272 13.9433594,11.5683594 C13.141272,12.3704467 12.1673234,12.7714844 11.0214844,12.7714844 C9.8899683,12.7714844 8.9196004,12.3704467 8.11035156,11.5683594 C7.30110272,10.766272 6.89648438,9.79232344 6.89648438,8.64648438 C6.89648438,7.5149683 7.30110272,6.5446004 8.11035156,5.73535156 C8.9196004,4.92610272 9.8899683,4.52148438 11.0214844,4.52148438 Z M11.0214844,11.3964844 C11.7806028,11.3964844 12.4251276,11.1243517 12.9550781,10.5800781 C13.4850287,10.0358046 13.75,9.38411838 13.75,8.625 C13.75,7.86588162 13.481448,7.21777612 12.9443359,6.68066406 C12.4072239,6.143552 11.7591184,5.875 11,5.875 C10.2408816,5.875 9.59277612,6.143552 9.05566406,6.68066406 C8.518552,7.21777612 8.25,7.86588162 8.25,8.625 C8.25,9.38411838 8.5221327,10.0358046 9.06640625,10.5800781 C9.6106798,11.1243517 10.262366,11.3964844 11.0214844,11.3964844 Z" id="Location-pin---simple-line-icons"></path>
            </g>
        </g>
    </g>
</svg>