<?xml version="1.0" encoding="UTF-8"?>
<svg width="20px" height="18px" viewBox="0 0 20 18" version="1.1" xmlns="http://www.w3.org/2000/svg" xmlns:xlink="http://www.w3.org/1999/xlink">
    <!-- Generator: Sketch 44.1 (41455) - http://www.bohemiancoding.com/sketch -->
    <title>_x31_</title>
    <desc>Created with Sketch.</desc>
    <defs></defs>
    <g id="Page-1" stroke="none" stroke-width="1" fill="none" fill-rule="evenodd">
        <g id="暑校_后台_申请表" transform="translate(-320.000000, -1306.000000)" fill-rule="nonzero" fill="#000000">
            <g id="Group-6" transform="translate(320.000000, 365.000000)">
                <g id="icon帽子" transform="translate(0.000000, 941.000000)">
                    <g id="_x31_">
                        <path d="M10,10 C9.9375,10 9.8125,10 9.75,9.9375 L0.375,5.5625 C0.125,5.4375 0,5.25 0,5 C0,4.75 0.125,4.5625 0.375,4.4375 L9.75,0.0625 C9.9375,-3.43475248e-16 10.125,-3.43475248e-16 10.25,0.0625 L19.625,4.4375 C19.875,4.5625 20,4.75 20,5 C20,5.25 19.875,5.4375 19.625,5.5625 L10.25,9.9375 C10.1875,10 10.0625,10 10,10 Z M2.125,5 L10,8.6875 L17.875,5 L10,1.3125 L2.125,5 Z" id="Shape"></path>
                        <path d="M10,15.75 C7,15.75 3.75,14.5 3.75,11.875 L3.75,6.8125 C3.75,6.4375 4,6.1875 4.375,6.1875 C4.75,6.1875 5,6.4375 5,6.8125 L5,11.875 C5,13.625 7.5,14.5 10,14.5 C12.5,14.5 15,13.5625 15,11.875 L15,7.1875 C15,6.8125 15.25,6.5625 15.625,6.5625 C16,6.5625 16.25,6.8125 16.25,7.1875 L16.25,11.875 C16.25,14.5625 13,15.75 10,15.75 Z" id="Shape"></path>
                        <path d="M18.0625,17.5 C17.6875,17.5 17.4375,17.25 17.4375,16.875 L17.4375,5.9375 C17.4375,5.5625 17.6875,5.3125 18.0625,5.3125 C18.4375,5.3125 18.6875,5.5625 18.6875,5.9375 L18.6875,16.875 C18.6875,17.25 18.4375,17.5 18.0625,17.5 Z" id="Shape"></path>
                    </g>
                </g>
            </g>
        </g>
    </g>
</svg>