<?xml version="1.0" encoding="UTF-8"?>
<svg width="20px" height="19px" viewBox="0 0 20 19" version="1.1" xmlns="http://www.w3.org/2000/svg" xmlns:xlink="http://www.w3.org/1999/xlink">
    <!-- Generator: Sketch 44.1 (41455) - http://www.bohemiancoding.com/sketch -->
    <title>Group 3</title>
    <desc>Created with Sketch.</desc>
    <defs></defs>
    <g id="Page-1" stroke="none" stroke-width="1" fill="none" fill-rule="evenodd">
        <g id="暑校_后台_项目报名" transform="translate(-348.000000, -930.000000)" fill="#000000">
            <g id="Group-14" transform="translate(348.000000, 929.000000)">
                <g id="Group-11">
                    <g id="Group-3" transform="translate(0.000000, 1.000000)">
                        <rect id="Rectangle-2" x="2" y="0" width="1.3" height="11"></rect>
                        <rect id="Rectangle-2-Copy" x="16.7" y="0" width="1.3" height="11"></rect>
                        <g id="Group-3-Copy" transform="translate(2.000000, 1.000000)">
                            <path d="M2,0.7 L14,0.7 L14,0.7 C15.1045695,0.7 16,1.5954305 16,2.7 L16,9 L0,9 L0,2.7 L0,2.7 C-1.3527075e-16,1.5954305 0.8954305,0.7 2,0.7 L2,0.7 Z M2,2 L2,2 C1.44771525,2 1,2.44771525 1,3 L1,3 L1,9 L15,9 L15,3 C15,2.44771525 14.5522847,2 14,2 L2,2 Z" id="Combined-Shape"></path>
                        </g>
                        <g id="Group-3-Copy-3" transform="translate(5.000000, 6.000000)">
                            <path d="M1.8,0.7 L8.2,0.7 L8.2,0.7 C8.75228475,0.7 9.2,1.14771525 9.2,1.7 L9.2,5 L0.8,5 L0.8,1.7 L0.8,1.7 C0.8,1.14771525 1.24771525,0.7 1.8,0.7 L1.8,0.7 Z M2,2 L2,4.2 L8,4.2 L8,2 L2.95241097,2 L2,2 Z" id="Combined-Shape"></path>
                        </g>
                        <g id="Group-3-Copy-2" transform="translate(0.000000, 9.000000)">
                            <path d="M2.7,0.7 L17.3,0.7 L17.3,0.7 C18.4045695,0.7 19.3,1.5954305 19.3,2.7 L19.3,10 L0.7,10 L0.7,2.7 L0.7,2.7 C0.7,1.5954305 1.5954305,0.7 2.7,0.7 L2.7,0.7 Z M3.125,2 L3.125,2 C2.57271525,2 2.125,2.44771525 2.125,3 L2.125,10 L17.875,10 L17.875,3 C17.875,2.44771525 17.4272847,2 16.875,2 L3.125,2 Z" id="Combined-Shape"></path>
                        </g>
                        <rect id="Rectangle-38" x="2" y="15.7" width="16" height="1.3"></rect>
                    </g>
                </g>
            </g>
        </g>
    </g>
</svg>