<?xml version="1.0" encoding="UTF-8"?>
<svg width="30px" height="30px" viewBox="0 0 30 30" version="1.1" xmlns="http://www.w3.org/2000/svg" xmlns:xlink="http://www.w3.org/1999/xlink">
    <!-- Generator: Sketch 44.1 (41455) - http://www.bohemiancoding.com/sketch -->
    <title></title>
    <desc>Created with Sketch.</desc>
    <defs></defs>
    <g id="Page-1" stroke="none" stroke-width="1" fill="none" fill-rule="evenodd">
        <g id="暑校_后台_补充1" transform="translate(-621.000000, -906.000000)" fill="#06b75f">
            <g id="Group-37" transform="translate(0.000000, 712.000000)">
                <g id="Group-35" transform="translate(36.000000, 76.000000)">
                    <g id="Group-47" transform="translate(450.000000, 96.000000)">
                        <path d="M146.952,44.5 L160.452,31 L158.328,28.804 L146.952,40.216 L141.624,34.852 L139.5,36.976 L146.952,44.5 Z M149.976,22 C152.712014,22 155.243988,22.6839932 157.572,24.052 C159.828011,25.3480065 161.603994,27.1239887 162.9,29.38 C164.268007,31.7080116 164.952,34.2399863 164.952,36.976 C164.952,39.7120137 164.268007,42.2439884 162.9,44.572 C161.603994,46.8280113 159.828011,48.6039935 157.572,49.9 C155.243988,51.2680068 152.712014,51.952 149.976,51.952 C147.239986,51.952 144.708012,51.2680068 142.38,49.9 C140.123989,48.5799934 138.348006,46.7920113 137.052,44.536 C135.683993,42.2079884 135,39.6880136 135,36.976 C135,34.2639864 135.683993,31.7440116 137.052,29.416 C138.372007,27.1599887 140.159989,25.3720066 142.416,24.052 C144.744012,22.6839932 147.263986,22 149.976,22 Z" id=""></path>
                    </g>
                </g>
            </g>
        </g>
    </g>
</svg>