<?xml version="1.0" encoding="UTF-8"?>
<svg width="16px" height="22px" viewBox="0 0 16 22" version="1.1" xmlns="http://www.w3.org/2000/svg" xmlns:xlink="http://www.w3.org/1999/xlink">
    <!-- Generator: Sketch 44.1 (41455) - http://www.bohemiancoding.com/sketch -->
    <title></title>
    <desc>Created with Sketch.</desc>
    <defs></defs>
    <g id="Page-1" stroke="none" stroke-width="1" fill="none" fill-rule="evenodd">
        <g id="暑校_后台_历史订单" transform="translate(-242.000000, -366.000000)" fill="#000000">
            <g id="Group-6" transform="translate(240.000000, 360.000000)">
                <g id="Group-3">
                    <path d="M11.03125,6.391 L17.90625,13.266 L17.90625,26.016 C17.90625,26.4027207 17.7737643,26.7285638 17.5087891,26.9935391 C17.2438138,27.2585143 16.9179707,27.391 16.53125,27.391 L3.46875,27.391 C3.08202932,27.391 2.75618622,27.2585143 2.49121094,26.9935391 C2.22623565,26.7285638 2.09375,26.4027207 2.09375,26.016 L2.09375,7.766 C2.09375,7.37927932 2.22623565,7.05343622 2.49121094,6.78846094 C2.75618622,6.52348565 3.08202932,6.391 3.46875,6.391 L11.03125,6.391 Z M16.53125,13.8460781 L10.4726562,7.766 L10.34375,7.766 L10.34375,13.9535 L16.53125,13.9535 L16.53125,13.8460781 Z M3.46875,26.016 L16.53125,26.016 L16.53125,15.3285 L8.96875,15.3285 L8.96875,7.766 L3.46875,7.766 L3.46875,26.016 Z" id=""></path>
                </g>
            </g>
        </g>
    </g>
</svg>