<?xml version="1.0" encoding="UTF-8"?>
<svg width="18px" height="21px" viewBox="0 0 18 21" version="1.1" xmlns="http://www.w3.org/2000/svg" xmlns:xlink="http://www.w3.org/1999/xlink">
    <!-- Generator: Sketch 44.1 (41455) - http://www.bohemiancoding.com/sketch -->
    <title>event_note - material</title>
    <desc>Created with Sketch.</desc>
    <defs></defs>
    <g id="Page-1" stroke="none" stroke-width="1" fill="none" fill-rule="evenodd">
        <g id="暑校_后台_成绩单/寄送" transform="translate(-323.000000, -365.000000)" fill="#000000">
            <g id="Group-14" transform="translate(322.000000, 365.000000)">
                <path d="M12.016,13.432 L12.016,15 L4.984,15 L4.984,13.432 L12.016,13.432 Z M17.684,18.4 L17.684,3.432 L2.416,3.432 L2.416,18.4 L17.684,18.4 Z M16.984,2.016 C17.5280027,2.016 17.999998,2.215998 18.4,2.616 C18.800002,3.016002 19,3.48799728 19,4.032 L19,18 C19,18.5440027 18.800002,19.015998 18.4,19.416 C17.999998,19.816002 17.5280027,20.016 16.984,20.016 L3.016,20.016 C2.4559972,20.016 1.98000196,19.816002 1.588,19.416 C1.19599804,19.015998 1,18.5440027 1,18 L1,4.032 C1,3.48799728 1.19599804,3.016002 1.588,2.616 C1.98000196,2.215998 2.4559972,2.016 3.016,2.016 L4,2.016 L4,-2.5243549e-29 L5.416,-1.13686838e-13 L5.416,2.016 L14.584,2.016 L14.584,-1.13686838e-13 L16,-2.5243549e-29 L16,2.016 L16.984,2.016 Z M15.032,10 L15.032,11.416 L5,11.416 L5,10 L15.032,10 Z M15.032,6.568 L15.032,7.984 L5,7.984 L5,6.568 L15.032,6.568 Z" id="event_note---material"></path>
            </g>
        </g>
    </g>
</svg>