<?xml version="1.0" encoding="UTF-8"?>
<svg width="21px" height="21px" viewBox="0 0 21 21" version="1.1" xmlns="http://www.w3.org/2000/svg" xmlns:xlink="http://www.w3.org/1999/xlink">
    <!-- Generator: Sketch 44.1 (41455) - http://www.bohemiancoding.com/sketch -->
    <title>Note - simple-line-icons</title>
    <desc>Created with Sketch.</desc>
    <defs></defs>
    <g id="Page-1" stroke="none" stroke-width="1" fill="none" fill-rule="evenodd">
        <g id="暑校_后台_申请退款" transform="translate(-322.000000, -365.000000)" fill="#000000">
            <path d="M338.605469,384 L338.605469,376.050781 L339.855469,374.859375 L339.855469,384 C339.855469,384.351564 339.735027,384.647785 339.494141,384.888672 C339.253254,385.129558 338.957033,385.25 338.605469,385.25 L324.230469,385.25 C323.891925,385.25 323.59896,385.129558 323.351562,384.888672 C323.104165,384.647785 322.980469,384.351564 322.980469,384 L322.980469,368.375 C322.980469,368.036457 323.104165,367.743491 323.351562,367.496094 C323.59896,367.248697 323.891925,367.125 324.230469,367.125 L334.25,367.125 L334.289062,367.164062 L333.019531,368.375 L324.230469,368.375 L324.230469,384 L338.605469,384 Z M342.023438,366.050781 C342.34896,366.363283 342.593098,366.68229 342.755859,367.007812 C342.918621,367.333335 343.00651,367.671873 343.019531,368.023438 C343.019531,368.361981 342.941407,368.700519 342.785156,369.039062 C342.628905,369.377606 342.388022,369.716144 342.0625,370.054688 C341.91927,370.210938 341.404952,370.725256 340.519531,371.597656 C339.63411,372.470056 338.683599,373.404292 337.667969,374.400391 C336.652339,375.396489 335.718103,376.317704 334.865234,377.164062 C334.012366,378.010421 333.540365,378.479166 333.449219,378.570312 C333.410156,378.596354 333.374349,378.622396 333.341797,378.648438 C333.309245,378.674479 333.273438,378.69401 333.234375,378.707031 C333.078124,378.746094 332.759117,378.843749 332.277344,379 C331.795571,379.156251 331.294273,379.315754 330.773438,379.478516 C330.252602,379.641277 329.790367,379.791015 329.386719,379.927734 C328.983071,380.064454 328.77474,380.132812 328.761719,380.132812 C328.735677,380.132812 328.709636,380.136068 328.683594,380.142578 C328.657552,380.149089 328.631511,380.152344 328.605469,380.152344 C328.540364,380.152344 328.475261,380.139323 328.410156,380.113281 C328.345052,380.087239 328.286459,380.048177 328.234375,379.996094 C328.169271,379.930989 328.123698,379.84961 328.097656,379.751953 C328.071614,379.654296 328.071614,379.559896 328.097656,379.46875 C328.097656,379.455729 328.159505,379.250653 328.283203,378.853516 C328.406902,378.456378 328.546874,378.000654 328.703125,377.486328 C328.859376,376.972003 329.009114,376.46745 329.152344,375.972656 C329.295574,375.477862 329.399739,375.126303 329.464844,374.917969 C329.477865,374.878906 329.494141,374.839844 329.513672,374.800781 C329.533203,374.761719 329.5625,374.722656 329.601562,374.683594 L330.900391,373.384766 C331.76628,372.518876 332.726557,371.561854 333.78125,370.513672 C334.835943,369.46549 335.812496,368.488937 336.710938,367.583984 C337.609379,366.679032 338.097656,366.194011 338.175781,366.128906 C338.279948,366.024739 338.511066,365.852215 338.869141,365.611328 C339.227215,365.370442 339.660154,365.25 340.167969,365.25 C340.506512,365.25 340.83203,365.318359 341.144531,365.455078 C341.457033,365.591798 341.749999,365.790363 342.023438,366.050781 Z M341.164062,369.175781 C341.372397,368.967447 341.52539,368.768881 341.623047,368.580078 C341.720704,368.391275 341.769531,368.21224 341.769531,368.042969 C341.75651,367.873697 341.701172,367.697918 341.603516,367.515625 C341.505859,367.333332 341.359376,367.151043 341.164062,366.96875 C340.994791,366.812499 340.828777,366.695313 340.666016,366.617188 C340.503254,366.539062 340.33724,366.5 340.167969,366.5 C339.881509,366.5 339.63086,366.578124 339.416016,366.734375 C339.201171,366.890626 339.080729,366.981771 339.054688,367.007812 L335.138672,370.923828 C334.168615,371.893885 333.237635,372.82161 332.345703,373.707031 C331.453772,374.592452 330.877605,375.165363 330.617188,375.425781 C330.526041,375.751304 330.392579,376.210283 330.216797,376.802734 C330.041015,377.395185 329.86849,377.964841 329.699219,378.511719 C330.220055,378.342447 330.77669,378.163412 331.369141,377.974609 C331.961592,377.785806 332.40104,377.645834 332.6875,377.554688 L333.078125,377.183594 C334.328131,375.946608 335.438146,374.849614 336.408203,373.892578 C337.37826,372.935542 338.20182,372.121748 338.878906,371.451172 C339.555993,370.780596 340.086587,370.256512 340.470703,369.878906 C340.85482,369.5013 341.085937,369.266928 341.164062,369.175781 Z" id="Note---simple-line-icons"></path>
        </g>
    </g>
</svg>