<?xml version="1.0" encoding="UTF-8"?>
<svg width="18px" height="21px" viewBox="0 0 18 21" version="1.1" xmlns="http://www.w3.org/2000/svg" xmlns:xlink="http://www.w3.org/1999/xlink">
    <!-- Generator: Sketch 44.1 (41455) - http://www.bohemiancoding.com/sketch -->
    <title>Combined Shape</title>
    <desc>Created with Sketch.</desc>
    <defs></defs>
    <g id="Page-1" stroke="none" stroke-width="1" fill="none" fill-rule="evenodd">
        <g id="暑校_后台_补充1" transform="translate(-313.000000, -2705.000000)" fill-rule="nonzero" fill="#666">
            <g id="Group-44" transform="translate(162.000000, 2670.000000)">
                <g id="Group" transform="translate(151.000000, 35.000000)">
                    <path d="M17.987,15 C18,15 18,20 18,20 C18,20.553 17.553,21 17,21 L1,21 C0.447,21 0,20.553 0,20 C0,20 0,15 0.013,15 C0.013,14.895 0.017,14.789 0.052,14.684 L2.052,8.684 C2.188,8.275 2.569,8 3,8 L7,8 L7,10 L3.721,10 L2.054,15 L15.946,15 L14.279,10 L11,10 L11,8 L15,8 C15.431,8 15.812,8.275 15.948,8.684 L17.948,14.684 C17.983,14.789 17.987,14.895 17.987,15 Z M12.9995,6.404 C12.7405,6.404 12.4815,6.31 12.2925,6.121 L9.9995,3.828 L9.9995,10.5 C9.9995,11.052 9.5515,11.5 8.9995,11.5 C8.4475,11.5 7.9995,11.052 7.9995,10.5 L7.9995,3.828 L5.7065,6.121 C5.5175,6.31 5.2585,6.404 4.9995,6.404 C4.7405,6.404 4.4815,6.31 4.2925,6.121 C3.9025,5.731 3.9025,5.097 4.2925,4.707 L8.9995,0 L13.7065,4.707 C14.0965,5.097 14.0965,5.731 13.7065,6.121 C13.5175,6.309 13.2585,6.404 12.9995,6.404 Z" id="Combined-Shape"></path>
                </g>
            </g>
        </g>
    </g>
</svg>