<?xml version="1.0" encoding="UTF-8"?>
<svg width="20px" height="20px" viewBox="0 0 20 20" version="1.1" xmlns="http://www.w3.org/2000/svg" xmlns:xlink="http://www.w3.org/1999/xlink">
    <!-- Generator: Sketch 44.1 (41455) - http://www.bohemiancoding.com/sketch -->
    <title>_x31_</title>
    <desc>Created with Sketch.</desc>
    <defs></defs>
    <g id="Page-1" stroke="none" stroke-width="1" fill="none" fill-rule="evenodd">
        <g id="暑校_后台_申请表" transform="translate(-320.000000, -366.000000)" fill-rule="nonzero" fill="#000000">
            <g id="Group-6" transform="translate(320.000000, 365.000000)">
                <g id="icon头像" transform="translate(0.000000, 1.000000)">
                    <g id="_x31_">
                        <path d="M10,20 C4.5,20 0,15.5 0,10 C0,4.5 4.5,0 10,0 C15.5,0 20,4.5 20,10 C20,15.5 15.5,20 10,20 Z M10,1.25 C5.1875,1.25 1.25,5.1875 1.25,10 C1.25,14.8125 5.1875,18.75 10,18.75 C14.8125,18.75 18.75,14.8125 18.75,10 C18.75,5.1875 14.8125,1.25 10,1.25 Z" id="Shape"></path>
                        <path d="M3.3125,16.5625 C3.25,16.5625 3.25,16.5625 3.1875,16.5625 C2.875,16.5 2.625,16.125 2.6875,15.8125 C3.25,13.5 4.8125,11.5625 6.9375,10.625 C6.125,9.8125 5.625,8.6875 5.625,7.5 C5.625,5.0625 7.5625,3.125 10,3.125 C12.4375,3.125 14.375,5.0625 14.375,7.5 C14.375,8.6875 13.875,9.8125 13.0625,10.625 C15.1875,11.5625 16.8125,13.4375 17.3125,15.75 C17.375,16.0625 17.1875,16.4375 16.875,16.5 C16.5625,16.5625 16.1875,16.375 16.125,16.0625 C15.625,13.8125 13.875,12 11.5625,11.4375 C11.3125,11.375 11.125,11.1875 11.125,10.875 C11.125,10.625 11.25,10.375 11.4375,10.25 C12.5,9.75 13.125,8.6875 13.125,7.5 C13.125,5.75 11.75,4.375 10,4.375 C8.25,4.375 6.875,5.75 6.875,7.5 C6.875,8.6875 7.5625,9.75 8.5625,10.3125 C8.8125,10.4375 8.9375,10.6875 8.875,10.9375 C8.875,11.1875 8.6875,11.4375 8.4375,11.5 C6.1875,12.0625 4.375,13.875 3.875,16.125 C3.875,16.375 3.625,16.5625 3.3125,16.5625 Z" id="Shape"></path>
                    </g>
                </g>
            </g>
        </g>
    </g>
</svg>