<?xml version="1.0" encoding="UTF-8"?>
<svg width="20px" height="21px" viewBox="0 0 20 21" version="1.1" xmlns="http://www.w3.org/2000/svg" xmlns:xlink="http://www.w3.org/1999/xlink">
    <!-- Generator: Sketch 44.1 (41455) - http://www.bohemiancoding.com/sketch -->
    <title>Layers - simple-line-icons</title>
    <desc>Created with Sketch.</desc>
    <defs></defs>
    <g id="Page-1" stroke="none" stroke-width="1" fill="none" fill-rule="evenodd">
        <g id="暑校_后台_项目报名" transform="translate(-350.000000, -366.000000)" fill="#000000">
            <path d="M350.429688,372.148438 C350.32552,372.096354 350.244141,372.01823 350.185547,371.914062 C350.126953,371.809895 350.097656,371.699219 350.097656,371.582031 C350.097656,371.464843 350.130208,371.357422 350.195312,371.259766 C350.260417,371.162109 350.345052,371.08724 350.449219,371.035156 L359.824219,366.328125 C359.915365,366.276041 360.009765,366.25 360.107422,366.25 C360.205079,366.25 360.299479,366.276041 360.390625,366.328125 L369.667969,371.035156 C369.772136,371.08724 369.853515,371.162109 369.912109,371.259766 C369.970703,371.357422 370,371.464843 370,371.582031 C370,371.699219 369.970703,371.809895 369.912109,371.914062 C369.853515,372.01823 369.778646,372.096354 369.6875,372.148438 L360.292969,377.207031 C360.253906,377.233073 360.208334,377.249349 360.15625,377.255859 C360.104166,377.26237 360.052084,377.265625 360,377.265625 C359.947916,377.265625 359.899089,377.259115 359.853516,377.246094 C359.807942,377.233073 359.759115,377.220052 359.707031,377.207031 L350.429688,372.148438 Z M360.097656,367.578125 L352.070312,371.621094 L360,375.9375 L368.027344,371.621094 L360.097656,367.578125 Z M369.550781,375.625 C369.654948,375.677084 369.739583,375.755208 369.804688,375.859375 C369.869792,375.963542 369.902344,376.067708 369.902344,376.171875 C369.902344,376.289063 369.873047,376.399739 369.814453,376.503906 C369.755859,376.608073 369.67448,376.686198 369.570312,376.738281 L360.195312,381.796875 C360.143229,381.822917 360.094401,381.842448 360.048828,381.855469 C360.003255,381.86849 359.954427,381.875 359.902344,381.875 C359.85026,381.875 359.798177,381.86849 359.746094,381.855469 C359.69401,381.842448 359.641927,381.822917 359.589844,381.796875 L350.3125,376.738281 C350.221354,376.686198 350.146485,376.608073 350.087891,376.503906 C350.029297,376.399739 350,376.289063 350,376.171875 C350,376.054687 350.029297,375.947266 350.087891,375.849609 C350.146485,375.751953 350.227864,375.677084 350.332031,375.625 L352.304688,374.648438 L353.632812,375.371094 L351.972656,376.210938 L359.902344,380.527344 L367.929688,376.210938 L366.367188,375.410156 L367.695312,374.6875 L369.550781,375.625 Z M369.550781,380 C369.654948,380.052084 369.739583,380.130208 369.804688,380.234375 C369.869792,380.338542 369.902344,380.442708 369.902344,380.546875 C369.902344,380.664063 369.873047,380.774739 369.814453,380.878906 C369.755859,380.983073 369.67448,381.061198 369.570312,381.113281 L360.195312,386.171875 C360.143229,386.197917 360.094401,386.217448 360.048828,386.230469 C360.003255,386.24349 359.954427,386.25 359.902344,386.25 C359.85026,386.25 359.798177,386.24349 359.746094,386.230469 C359.69401,386.217448 359.641927,386.197917 359.589844,386.171875 L350.3125,381.113281 C350.221354,381.061198 350.146485,380.983073 350.087891,380.878906 C350.029297,380.774739 350,380.664063 350,380.546875 C350,380.429687 350.029297,380.322266 350.087891,380.224609 C350.146485,380.126953 350.227864,380.052084 350.332031,380 L352.1875,379.160156 L353.515625,379.882812 L351.972656,380.585938 L359.902344,384.902344 L367.929688,380.585938 L366.464844,379.863281 L367.792969,379.140625 L369.550781,380 Z" id="Layers---simple-line-icons"></path>
        </g>
    </g>
</svg>